<svg width="156" height="33" viewBox="0 0 156 33" fill="none" xmlns="http://www.w3.org/2000/svg">
<g clip-path="url(#clip0_565_1457)">
<path d="M6 6V9H15V15H0V0H24V6H6Z" fill="#B9A7C7"/>
<path d="M24 9V24H0V18H18V9H24Z" fill="#B9A7C7"/>
<path d="M33 9V33H6V27H27V9H33Z" fill="#B9A7C7"/>
<path d="M52.8 11.7V15H40.77V0H52.53V3.27H44.94V5.82H51.63V8.97H44.94V11.7H52.8Z" fill="#B9A7C7"/>
<path d="M55.14 15V-5.96041e-06H62.25C63.7529 -0.0359795 65.2432 0.282627 66.6 0.929994C67.8314 1.47717 68.8747 2.37439 69.6 3.50999C70.3318 4.70909 70.6967 6.09604 70.65 7.49999C70.6933 8.90355 70.3285 10.2895 69.6 11.49C68.8747 12.6256 67.8314 13.5228 66.6 14.07C65.2432 14.7174 63.7529 15.036 62.25 15H55.14ZM59.4 11.61H62.07C62.838 11.6323 63.5999 11.4675 64.29 11.13C64.923 10.8252 65.4467 10.3329 65.79 9.71999C66.1646 9.04133 66.351 8.27489 66.33 7.49999C66.3555 6.72463 66.1688 5.95702 65.79 5.27999C65.4467 4.66709 64.923 4.17478 64.29 3.86999C63.5999 3.53244 62.838 3.36771 62.07 3.38999H59.4V11.61Z" fill="#B9A7C7"/>
<path d="M79.74 15C77.8456 15.1079 75.9837 14.473 74.55 13.23C73.9077 12.5585 73.4109 11.7615 73.0908 10.8891C72.7708 10.0167 72.6343 9.0876 72.69 8.16V0H76.95V8.01C76.8492 8.98182 77.1168 9.95607 77.7 10.74C78.2594 11.2807 79.007 11.583 79.785 11.583C80.563 11.583 81.3106 11.2807 81.87 10.74C82.4378 9.94869 82.7038 8.98035 82.62 8.01V0H86.79V8.16C86.8456 9.0876 86.7092 10.0167 86.3891 10.8891C86.0691 11.7615 85.5723 12.5585 84.93 13.23C83.4963 14.473 81.6344 15.1079 79.74 15Z" fill="#B9A7C7"/>
<path d="M98.79 0H94.62L87.99 15H92.31L93.48 12H99.81L101.01 15H105.39L98.79 0ZM94.74 9L96.66 4.23L98.58 9H94.74Z" fill="#B9A7C7"/>
<path d="M117.18 10.26C118.045 9.87226 118.783 9.24837 119.31 8.45998C119.882 7.56696 120.165 6.51945 120.12 5.45998C120.155 4.40158 119.873 3.35683 119.31 2.45998C118.726 1.65302 117.925 1.02873 117 0.659976C115.88 0.192044 114.673 -0.03291 113.46 -2.41698e-05H106.62V15H111V11.01H113.31L115.89 15H120.39L117.18 10.26ZM111 7.73998V3.32998H113.34C114.055 3.29052 114.762 3.49115 115.35 3.89998C115.565 4.11509 115.733 4.37329 115.841 4.65764C115.95 4.942 115.997 5.24608 115.98 5.54998C115.996 5.84481 115.948 6.13967 115.84 6.41418C115.731 6.6887 115.564 6.93634 115.35 7.13998C114.774 7.57533 114.06 7.78836 113.34 7.73998H111Z" fill="#B9A7C7"/>
<path d="M122.46 15V-5.96041e-06H129.54C131.043 -0.0359795 132.533 0.282627 133.89 0.929994C135.121 1.47717 136.165 2.37439 136.89 3.50999C137.641 4.7033 138.027 6.09021 138 7.49999C138.032 8.90634 137.657 10.2921 136.92 11.49C136.195 12.6256 135.151 13.5228 133.92 14.07C132.554 14.722 131.053 15.0407 129.54 15H122.46ZM126.69 11.61H129.36C130.138 11.6324 130.909 11.4678 131.61 11.13C132.229 10.8156 132.74 10.325 133.08 9.71999C133.455 9.04133 133.641 8.27489 133.62 7.49999C133.645 6.72463 133.459 5.95702 133.08 5.27999C132.74 4.67502 132.229 4.18436 131.61 3.86999C130.909 3.53222 130.138 3.36761 129.36 3.38999H126.69V11.61Z" fill="#B9A7C7"/>
<path d="M147.69 14.9999C146.554 15.0162 145.426 14.823 144.36 14.4299C143.403 14.104 142.521 13.5878 141.768 12.9125C141.016 12.2371 140.407 11.4165 139.98 10.4999C139.556 9.55706 139.341 8.53367 139.35 7.49995C139.341 6.46622 139.556 5.44284 139.98 4.49995C140.407 3.58342 141.016 2.7628 141.768 2.08743C142.521 1.41205 143.403 0.895881 144.36 0.569946C145.426 0.17691 146.554 -0.0163187 147.69 -5.4384e-05C148.816 -0.0181828 149.935 0.175164 150.99 0.569946C151.947 0.895881 152.829 1.41205 153.582 2.08743C154.334 2.7628 154.943 3.58342 155.37 4.49995C155.794 5.44284 156.009 6.46622 156 7.49995C156.01 8.51216 155.804 9.51485 155.395 10.4409C154.986 11.367 154.385 12.1951 153.63 12.8699C152.867 13.5662 151.968 14.0973 150.99 14.4299C149.935 14.8247 148.816 15.0181 147.69 14.9999ZM147.69 11.6099C148.232 11.6132 148.77 11.5219 149.28 11.3399C149.749 11.1423 150.177 10.8572 150.54 10.4999C150.923 10.1292 151.22 9.67852 151.41 9.17995C151.621 8.64569 151.724 8.07439 151.71 7.49995C151.723 6.91576 151.622 6.33465 151.41 5.78995C151.213 5.30427 150.916 4.86496 150.54 4.49995C150.177 4.14265 149.749 3.8576 149.28 3.65995C148.77 3.47802 148.232 3.38665 147.69 3.38995C147.139 3.3868 146.591 3.47812 146.07 3.65995C145.601 3.8576 145.173 4.14265 144.81 4.49995C144.434 4.86496 144.137 5.30427 143.94 5.78995C143.728 6.33465 143.626 6.91576 143.64 7.49995C143.626 8.07439 143.728 8.64569 143.94 9.17995C144.129 9.67852 144.427 10.1292 144.81 10.4999C145.173 10.8572 145.601 11.1423 146.07 11.3399C146.591 11.5218 147.139 11.6131 147.69 11.6099Z" fill="#B9A7C7"/>
<path d="M55.98 18L49.56 33H45.39L39 18H43.59L47.64 27.75L51.78 18H55.98Z" fill="#B9A7C7"/>
<path d="M64.83 18H60.66L54 33H58.35L59.52 30H66L67.2 33H71.61L64.83 18ZM60.81 27L62.7 22.2L64.62 27H60.81Z" fill="#B9A7C7"/>
<path d="M72.66 33V18H76.89V29.64H84V33H72.66Z" fill="#B9A7C7"/>
<path d="M97.74 29.73V33H85.71V18H97.47V21.3H89.88V23.82H96.57V26.97H89.88V29.73H97.74Z" fill="#B9A7C7"/>
<path d="M114.33 18V33H110.85L104.25 25.02V33H100.11V18H103.59L110.19 26.01V18H114.33Z" fill="#B9A7C7"/>
<path d="M124.8 33C123.687 33.0109 122.58 32.8282 121.53 32.46C120.563 32.1221 119.675 31.5914 118.92 30.9C118.162 30.2192 117.556 29.3865 117.142 28.4562C116.727 27.5258 116.513 26.5186 116.513 25.5C116.513 24.4814 116.727 23.4742 117.142 22.5438C117.556 21.6135 118.162 20.7808 118.92 20.1C119.675 19.4086 120.563 18.8779 121.53 18.54C122.58 18.1718 123.687 17.9891 124.8 18C126.073 17.9857 127.337 18.2201 128.52 18.69C129.582 19.1386 130.519 19.8387 131.25 20.73L128.55 23.07C128.1 22.5578 127.561 22.131 126.96 21.81C126.353 21.5166 125.684 21.3726 125.01 21.39C124.439 21.3847 123.871 21.476 123.33 21.66C122.839 21.8501 122.39 22.1356 122.01 22.5C121.636 22.8786 121.34 23.3271 121.14 23.82C120.741 24.9044 120.741 26.0956 121.14 27.18C121.34 27.6729 121.636 28.1214 122.01 28.5C122.39 28.8644 122.839 29.1499 123.33 29.34C123.871 29.524 124.439 29.6153 125.01 29.61C125.684 29.6275 126.353 29.4835 126.96 29.19C127.561 28.869 128.1 28.4422 128.55 27.93L131.25 30.27C130.517 31.1521 129.58 31.842 128.52 32.28C127.343 32.7744 126.076 33.0196 124.8 33Z" fill="#B9A7C7"/>
<path d="M133.14 33V18H137.37V33H133.14Z" fill="#B9A7C7"/>
<path d="M149.37 18H145.17L138.57 33H142.92L144 30H150.3L151.5 33H156L149.37 18ZM145.35 27L147.24 22.23L149.16 27H145.35Z" fill="#B9A7C7"/>
</g>
<defs>
<clipPath id="clip0_565_1457">
<rect width="156" height="33" fill="white"/>
</clipPath>
</defs>
</svg>
