<svg width="156" height="33" viewBox="0 0 156 33" fill="none" xmlns="http://www.w3.org/2000/svg">
<g clip-path="url(#clip0_565_1499)">
<path d="M6 6V9H15V15H0V0H24V6H6Z" fill="#B9A7C7"/>
<path d="M24 9V24H0V18H18V9H24Z" fill="#B9A7C7"/>
<path d="M33 9V33H6V27H27V9H33Z" fill="#B9A7C7"/>
<path d="M52.8 11.22V14.4H40.77V0H52.53V3.15H44.94V5.58H51.63V8.61H44.94V11.22H52.8Z" fill="#B9A7C7"/>
<path d="M55.14 14.4V-2.50349e-05H62.25C63.7457 -0.0259355 65.2294 0.270801 66.6 0.869975C67.8133 1.40286 68.8528 2.26557 69.6 3.35997C70.3264 4.50607 70.6922 5.84374 70.65 7.19998C70.6936 8.54696 70.3274 9.87546 69.6 11.01C68.8632 12.1211 67.8216 12.996 66.6 13.53C65.2294 14.1291 63.7457 14.4259 62.25 14.4H55.14ZM59.4 11.16H62.07C62.838 11.1823 63.5999 11.0175 64.29 10.68C64.9198 10.3994 65.4449 9.92686 65.79 9.32997C66.1614 8.68272 66.3482 7.946 66.33 7.19998C66.3562 6.45307 66.1689 5.71419 65.79 5.06998C65.4449 4.47309 64.9198 4.00058 64.29 3.71997C63.5999 3.38242 62.838 3.21769 62.07 3.23997H59.4V11.16Z" fill="#B9A7C7"/>
<path d="M79.74 14.4C77.8553 14.512 75.999 13.9004 74.55 12.69C73.9117 12.0591 73.4156 11.2992 73.0948 10.461C72.774 9.62285 72.636 8.72582 72.69 7.83V0H76.95V7.71C76.8577 8.63456 77.1264 9.55901 77.7 10.29C78.2594 10.8307 79.007 11.133 79.785 11.133C80.563 11.133 81.3106 10.8307 81.87 10.29C82.4327 9.55347 82.7002 8.6334 82.62 7.71V0H86.79V7.83C86.844 8.72582 86.706 9.62285 86.3852 10.461C86.0645 11.2992 85.5683 12.0591 84.93 12.69C83.481 13.9004 81.6247 14.512 79.74 14.4Z" fill="#B9A7C7"/>
<path d="M98.79 0H94.62L87.99 14.4H92.31L93.48 11.58H99.81L101.01 14.4H105.39L98.79 0ZM94.74 8.58L96.66 4.02L98.58 8.58H94.74Z" fill="#B9A7C7"/>
<path d="M117.18 9.87C118.034 9.49339 118.77 8.89203 119.31 8.13C119.817 7.28009 120.057 6.29784 120 5.31C120.018 4.30078 119.736 3.30891 119.19 2.46C118.642 1.66054 117.884 1.02741 117 0.630002C115.874 0.184027 114.67 -0.0302482 113.46 2.1258e-06H106.62V14.4H111V10.56H113.31L116.04 14.4H120.54L117.18 9.87ZM111 7.41V3.21H113.34C114.051 3.16177 114.759 3.35177 115.35 3.75C115.561 3.94907 115.727 4.19161 115.836 4.46092C115.945 4.73022 115.994 5.0199 115.98 5.31C115.996 5.60034 115.948 5.89063 115.839 6.16024C115.73 6.42986 115.563 6.67219 115.35 6.87C114.759 7.26824 114.051 7.45823 113.34 7.41H111Z" fill="#B9A7C7"/>
<path d="M122.46 14.4V-2.50349e-05H129.54C131.036 -0.0259355 132.519 0.270801 133.89 0.869975C135.103 1.40286 136.143 2.26557 136.89 3.35997C137.637 4.49934 138.024 5.83751 138 7.19998C138.033 8.54987 137.656 9.87807 136.92 11.01C136.183 12.1211 135.142 12.996 133.92 13.53C132.549 14.1291 131.066 14.4259 129.57 14.4H122.46ZM126.69 11.16H129.36C130.138 11.1824 130.909 11.0177 131.61 10.68C132.225 10.3893 132.738 9.91848 133.08 9.32997C133.451 8.68272 133.638 7.946 133.62 7.19998C133.646 6.45307 133.459 5.71419 133.08 5.06998C132.738 4.48147 132.225 4.0107 131.61 3.71997C130.909 3.3822 130.138 3.21759 129.36 3.23997H126.69V11.16Z" fill="#B9A7C7"/>
<path d="M147.69 14.4C146.557 14.4112 145.431 14.2286 144.36 13.86C143.391 13.5363 142.494 13.0268 141.72 12.36C140.991 11.7261 140.399 10.9503 139.98 10.08C139.535 9.144 139.319 8.11575 139.35 7.07996C139.319 6.04418 139.535 5.01593 139.98 4.07996C140.399 3.20966 140.991 2.43388 141.72 1.79996C142.494 1.13313 143.391 0.623621 144.36 0.299965C145.445 0.0124688 146.571 -0.0889688 147.69 -3.5231e-05C148.813 -0.013854 149.93 0.168901 150.99 0.539965C151.959 0.863621 152.856 1.37313 153.63 2.03996C154.359 2.67388 154.951 3.44966 155.37 4.31997C155.815 5.25593 156.031 6.28418 156 7.31996C156.031 8.35575 155.815 9.384 155.37 10.32C154.958 11.1949 154.365 11.9721 153.63 12.6C152.856 13.2668 151.959 13.7763 150.99 14.1C149.916 14.3899 148.799 14.4914 147.69 14.4ZM147.69 11.16C148.232 11.1633 148.77 11.0719 149.28 10.89C149.748 10.7026 150.175 10.4277 150.54 10.08C150.916 9.726 151.212 9.29661 151.41 8.81996C151.622 8.30672 151.724 7.75496 151.71 7.19996C151.724 6.64497 151.622 6.09321 151.41 5.57996C151.212 5.10332 150.916 4.67393 150.54 4.31997C150.175 3.97227 149.748 3.69735 149.28 3.50996C148.77 3.32804 148.232 3.23667 147.69 3.23996C147.139 3.23682 146.591 3.32814 146.07 3.50996C145.602 3.69735 145.175 3.97227 144.81 4.31997C144.434 4.67393 144.138 5.10332 143.94 5.57996C143.728 6.09321 143.626 6.64497 143.64 7.19996C143.626 7.75496 143.728 8.30672 143.94 8.81996C144.138 9.29661 144.434 9.726 144.81 10.08C145.175 10.4277 145.602 10.7026 146.07 10.89C146.591 11.0718 147.139 11.1631 147.69 11.16Z" fill="#B9A7C7"/>
<path d="M55.98 18.6L49.56 33H45.39L39 18.6H43.59L47.64 27.96L51.78 18.6H55.98Z" fill="#B9A7C7"/>
<path d="M64.83 18.6H60.66L54 33H58.35L59.52 30.21H66L67.2 33H71.61L64.83 18.6ZM60.81 27.21L62.7 22.65L64.62 27.21H60.81Z" fill="#B9A7C7"/>
<path d="M72.66 33V18.6H76.89V29.76H84V33H72.66Z" fill="#B9A7C7"/>
<path d="M97.74 29.85V33H85.71V18.6H97.47V21.78H89.88V24.18H96.57V27.21H89.88V29.85H97.74Z" fill="#B9A7C7"/>
<path d="M114.33 18.6V33H110.85L104.25 25.35V33H100.11V18.6H103.59L110.19 26.28V18.6H114.33Z" fill="#B9A7C7"/>
<path d="M124.8 33C123.69 33.006 122.586 32.8338 121.53 32.49C120.572 32.1608 119.687 31.6516 118.92 30.99C118.191 30.3561 117.599 29.5803 117.18 28.71C116.766 27.7958 116.551 26.8037 116.551 25.8C116.551 24.7963 116.766 23.8042 117.18 22.89C117.599 22.0197 118.191 21.2439 118.92 20.61C119.687 19.9483 120.572 19.4392 121.53 19.11C122.586 18.7662 123.69 18.594 124.8 18.6C126.071 18.5761 127.335 18.8003 128.52 19.26C129.57 19.6869 130.505 20.3549 131.25 21.21L128.55 23.46C128.099 22.9654 127.559 22.5585 126.96 22.26C126.348 21.9806 125.683 21.8373 125.01 21.84C124.439 21.8347 123.871 21.926 123.33 22.11C122.84 22.289 122.391 22.5645 122.01 22.92C121.644 23.2818 121.349 23.7092 121.14 24.18C120.741 25.2231 120.741 26.3769 121.14 27.42C121.349 27.8908 121.644 28.3182 122.01 28.68C122.391 29.0355 122.84 29.3109 123.33 29.49C123.871 29.674 124.439 29.7653 125.01 29.76C125.683 29.7627 126.348 29.6194 126.96 29.34C127.559 29.0415 128.099 28.6346 128.55 28.14L131.25 30.39C130.504 31.2367 129.569 31.8947 128.52 32.31C127.337 32.7799 126.073 33.0143 124.8 33Z" fill="#B9A7C7"/>
<path d="M133.14 33V18.6H137.37V33H133.14Z" fill="#B9A7C7"/>
<path d="M149.37 18.6H145.17L138.57 33H142.92L144.09 30.21H150.39L151.59 33H156L149.37 18.6ZM145.35 27.21L147.24 22.65L149.16 27.21H145.35Z" fill="#B9A7C7"/>
</g>
<defs>
<clipPath id="clip0_565_1499">
<rect width="156" height="33" fill="white"/>
</clipPath>
</defs>
</svg>
